<svg width="24" height="12" viewBox="0 0 24 12" fill="none" xmlns="http://www.w3.org/2000/svg">
<g clip-path="url(#clip0_19_6807)">
<path d="M23.9032 5.842C23.6545 5.53576 23.4317 5.21197 23.1531 4.92639C21.6498 3.3854 19.8937 2.099 17.7707 1.19269C16.322 0.57402 14.7942 0.179994 13.1728 0.0503731C10.023 -0.201639 7.1745 0.503787 4.5654 1.97145C2.87172 2.92424 1.45909 4.12543 0.228321 5.48515C-0.0753907 5.82031 -0.076003 6.18335 0.225872 6.51747C1.64646 8.08583 3.30585 9.4342 5.33386 10.4381C7.01101 11.268 8.80818 11.7953 10.7523 11.9507C13.5825 12.1764 16.1965 11.6212 18.628 10.4082C20.6389 9.40528 22.2811 8.06053 23.6876 6.50043C23.7795 6.3987 23.8327 6.27217 23.9038 6.15753C23.9032 6.05218 23.9032 5.94683 23.9032 5.842ZM12.0039 1.76591C14.8169 1.80103 17.0053 3.71539 16.9747 6.11415C16.9466 8.37296 14.6246 10.2661 11.9231 10.2336C9.08066 10.199 6.90325 8.30273 6.9308 5.88693C6.95713 3.61882 9.28028 1.73183 12.0039 1.76591Z" fill="#F43756"/>
<path d="M14.6594 5.99804C14.6496 4.73281 13.4109 3.70772 11.9058 3.71908C10.4387 3.73045 9.24159 4.76483 9.24955 6.01456C9.25751 7.27204 10.5042 8.29351 12.016 8.28164C13.4703 8.27079 14.6686 7.23537 14.6594 5.99804Z" fill="#F43756"/>
</g>
<defs>
<clipPath id="clip0_19_6807">
<rect width="23.9032" height="12" fill="white" transform="matrix(1 0 0 -1 0 12)"/>
</clipPath>
</defs>
</svg>
