<svg width="21" height="38" viewBox="0 0 21 38" fill="none" xmlns="http://www.w3.org/2000/svg">
<path d="M3.6017 0C4.28804 0.264905 4.75712 0.827587 5.25346 1.35643C10.2578 6.68064 15.2613 12.0058 20.272 17.3233C20.9047 17.9952 21.1747 18.7599 20.882 19.6697C20.7775 19.9946 20.5693 20.3107 20.3384 20.5572C15.1022 26.1425 9.85967 31.72 4.61076 37.2917C3.70624 38.2518 2.56265 38.2276 1.64632 37.2695C1.36451 36.9746 1.08633 36.6759 0.807254 36.379C-0.272709 35.2314 -0.269072 34.0925 0.818162 32.9362C2.22357 31.4416 3.62897 29.9469 5.03438 28.4522C7.90246 25.4019 10.7705 22.3507 13.6414 19.3023C13.7313 19.2076 13.8441 19.137 13.9677 19.0374C13.8232 18.874 13.7341 18.7667 13.6386 18.6652C9.34877 14.1019 5.06256 9.53466 0.764528 4.97906C0.140913 4.31776 -0.114532 3.57816 0.125459 2.66646C0.138186 2.61908 0.150913 2.56881 0.176367 2.52917C0.837253 1.50725 1.55086 0.546246 2.68082 0.0618757C2.71173 0.0483404 2.73719 0.0212698 2.76537 0C3.04445 0 3.32353 0 3.6017 0Z" fill="#1D1A1A"/>
</svg>
