<svg width="21" height="38" viewBox="0 0 21 38" fill="none" xmlns="http://www.w3.org/2000/svg">
<path d="M17.3983 0C16.712 0.264905 16.2429 0.827587 15.7465 1.35643C10.7422 6.68064 5.7387 12.0058 0.72797 17.3233C0.0952649 17.9952 -0.174727 18.7599 0.11799 19.6697C0.222532 19.9945 0.430707 20.3107 0.661608 20.5572C5.89779 26.1425 11.1403 31.72 16.3892 37.2917C17.2938 38.2518 18.4374 38.2276 19.3537 37.2695C19.6355 36.9746 19.9137 36.6759 20.1927 36.379C21.2727 35.2314 21.2691 34.0925 20.1818 32.9362C18.7764 31.4416 17.371 29.9469 15.9656 28.4522C13.0975 25.4019 10.2295 22.3507 7.35865 19.3023C7.26865 19.2076 7.15593 19.137 7.0323 19.0374C7.17684 18.874 7.26592 18.7667 7.36137 18.6652C11.6512 14.1019 15.9374 9.53466 20.2355 4.97906C20.8591 4.31776 21.1145 3.57816 20.8745 2.66646C20.8618 2.61908 20.8491 2.56881 20.8236 2.52917C20.1627 1.50725 19.4491 0.546246 18.3192 0.0618757C18.2883 0.0483404 18.2628 0.0212698 18.2346 0C17.9556 0 17.6765 0 17.3983 0Z" fill="#1D1A1A"/>
</svg>
