<svg width="38" height="21" viewBox="0 0 38 21" fill="none" xmlns="http://www.w3.org/2000/svg">
<path d="M38 17.3983C37.7351 16.712 37.1724 16.2429 36.6436 15.7465C31.3194 10.7422 25.9942 5.7387 20.6767 0.727968C20.0048 0.0952623 19.2401 -0.174729 18.3303 0.117988C18.0054 0.22253 17.6893 0.430706 17.4428 0.661607C11.8575 5.89779 6.28 11.1403 0.70829 16.3892C-0.251747 17.2938 -0.227577 18.4374 0.73053 19.3537C1.02541 19.6355 1.32415 19.9137 1.62096 20.1927C2.76856 21.2727 3.90746 21.2691 5.06376 20.1818C6.55844 18.7764 8.05313 17.371 9.54781 15.9656C12.5981 13.0975 15.6493 10.2295 18.6977 7.35865C18.7924 7.26865 18.863 7.15593 18.9626 7.0323C19.126 7.17684 19.2333 7.26592 19.3348 7.36137C23.8981 11.6512 28.4653 15.9374 33.0209 20.2355C33.6822 20.8591 34.4218 21.1145 35.3335 20.8745C35.3809 20.8618 35.4312 20.8491 35.4708 20.8236C36.4927 20.1627 37.4538 19.4491 37.9381 18.3192C37.9517 18.2883 37.9787 18.2628 38 18.2346C38 17.9556 38 17.6765 38 17.3983Z" fill="#111010"/>
</svg>
