<svg width="26" height="28" viewBox="0 0 26 28" fill="none" xmlns="http://www.w3.org/2000/svg">
<g clip-path="url(#clip0_57_1518)">
<path d="M16.4611 0C16.8426 0.125417 17.2448 0.206354 17.6028 0.385C19.1494 1.15792 19.9565 2.47552 20.0573 4.27656C20.0931 4.9175 19.6496 5.44323 19.0901 5.46802C18.4623 5.49573 18.0015 5.04948 17.9739 4.34948C17.9532 3.82813 17.8056 3.36802 17.4897 2.97208C17.0765 2.45438 16.5377 2.19187 15.9051 2.19115C11.9896 2.18458 8.07477 2.18094 4.15925 2.19188C2.9134 2.19479 2.07662 3.28125 2.08421 4.48583C2.10905 8.34021 2.09318 12.1953 2.09318 16.0504C2.09318 18.9211 2.09249 21.7919 2.09387 24.6626C2.09456 25.2977 2.38705 25.6783 2.96376 25.7899C3.34179 25.8628 3.64877 25.7155 3.91297 25.4268C5.18228 24.0392 6.45572 22.6559 7.72847 21.272C8.22032 20.7368 8.71356 20.2023 9.2061 19.6664C9.72831 19.0983 10.3292 19.0918 10.85 19.6583C12.616 21.5768 14.3792 23.4974 16.1445 25.4166C16.5301 25.8358 16.9744 25.9255 17.429 25.6718C17.7767 25.4778 17.9505 25.1723 17.9733 24.7494C18.0174 23.9276 18.681 23.4267 19.3612 23.6826C19.8117 23.8525 20.0897 24.3163 20.0545 24.8391C19.9427 26.495 18.9859 27.631 17.4304 27.9563C17.3979 27.9628 17.369 27.9854 17.3379 28.0007C17.0454 28.0007 16.7529 28.0007 16.4598 28.0007C16.4397 27.9854 16.4211 27.9592 16.3997 27.9555C15.7002 27.8418 15.1318 27.4779 14.6469 26.9442C14.0267 26.2609 13.4003 25.585 12.776 24.9061C11.864 23.9145 10.9521 22.9235 10.018 21.9078C9.95389 21.9888 9.90284 22.0624 9.84282 22.1273C8.37347 23.7271 6.90066 25.324 5.43407 26.9259C5.03741 27.3591 4.58695 27.6938 4.03783 27.8673C3.89297 27.9132 3.74741 27.9555 3.60255 28C3.29281 28 2.98307 28 2.67333 28C2.6278 27.981 2.58296 27.9555 2.53606 27.9453C1.97729 27.8272 1.47784 27.5785 1.04877 27.1797C0.309259 26.4914 0.000211175 25.6061 0.000901013 24.5817C0.00159085 22.2403 0.000901013 19.899 0.000901013 17.5576C0.000901013 13.1935 -0.00185834 8.82948 0.00228069 4.46615C0.0043502 2.53094 1.0667 0.903438 2.74508 0.256667C3.02377 0.149479 3.31695 0.0845833 3.60324 0C7.8892 0 12.1752 0 16.4611 0Z" fill="#0A0A0A"/>
<path d="M19.013 7.05518C22.8616 7.05445 25.9866 10.3517 25.9997 14.4263C26.0135 18.4943 22.8664 21.8215 19.0075 21.8201C15.1658 21.8186 12.0291 18.4965 12.0332 14.4343C12.0373 10.3663 15.1692 7.05518 19.013 7.05518ZM23.9081 14.4504C23.915 11.5826 21.7241 9.24632 19.0233 9.24195C16.335 9.23757 14.14 11.5534 14.1262 14.4096C14.1124 17.2766 16.2943 19.6165 18.9978 19.6326C21.693 19.6479 23.9012 17.3182 23.9081 14.4504Z" fill="#0A0A0A"/>
<path d="M17.9714 15.5305C17.6078 15.5305 17.2822 15.5327 16.9566 15.5297C16.3778 15.5246 15.9177 15.0492 15.9074 14.4484C15.8977 13.8446 16.3696 13.3481 16.9594 13.3437C17.285 13.3415 17.6106 13.343 17.9714 13.343C17.9714 12.9806 17.9645 12.6379 17.9727 12.2959C17.9928 11.4683 18.7067 10.9272 19.3952 11.2255C19.8394 11.418 20.0499 11.7964 20.0623 12.2966C20.0705 12.6328 20.0636 12.9689 20.0636 13.3422C20.403 13.3422 20.7273 13.3408 21.0508 13.3422C21.6523 13.3444 22.1152 13.8104 22.1263 14.4221C22.1373 15.0346 21.6599 15.5261 21.0494 15.529C20.7328 15.5305 20.4155 15.529 20.0636 15.529C20.0636 15.8914 20.0712 16.2341 20.0623 16.5761C20.0409 17.3935 19.3524 17.9214 18.6626 17.656C18.2452 17.4948 17.9831 17.0902 17.9734 16.5732C17.9659 16.2392 17.9714 15.9031 17.9714 15.5305Z" fill="#0A0A0A"/>
</g>
<defs>
<clipPath id="clip0_57_1518">
<rect width="26" height="28" fill="white"/>
</clipPath>
</defs>
</svg>
