<svg width="24" height="23" viewBox="0 0 24 23" fill="none" xmlns="http://www.w3.org/2000/svg">
<g clip-path="url(#clip0_41_4100)">
<path d="M0 11.4999C0 11.0753 0 10.6507 0 10.221C0.0500939 9.8621 0.0901691 9.5032 0.155291 9.14935C0.691296 6.32869 2.17408 4.10452 4.45836 2.43638C7.16844 0.449791 10.2242 -0.278121 13.5404 0.0959446C16.1353 0.389131 18.4446 1.37485 20.3982 3.12386C22.4771 4.98913 23.7345 7.29924 23.9649 10.13C24.1403 12.3087 23.6443 14.3357 22.4872 16.1707C20.4684 19.3705 17.5028 21.1094 13.8359 21.6603C11.5917 21.999 9.39762 21.7362 7.27364 20.9173C7.17345 20.8819 7.03319 20.9021 6.933 20.9476C6.59236 21.0992 6.26675 21.2863 5.9211 21.4379C4.20789 22.1962 2.41954 22.6663 0.581089 22.9847C0.315592 23.0353 0.120225 22.9595 0 22.7168C0 22.6359 0 22.5601 0 22.4792C0.280526 22.0748 0.606137 21.6907 0.82655 21.2559C1.48779 19.9518 1.7082 18.5263 1.87852 17.0907C1.90357 16.8581 1.84847 16.6863 1.72323 16.5043C0.976832 15.3973 0.465873 14.1891 0.205385 12.8748C0.120225 12.4199 0.0701315 11.9599 0 11.4999ZM6.41202 12.5058C7.28867 12.5008 8.00501 11.7729 8 10.8933C7.99499 10.0137 7.27364 9.28584 6.402 9.28078C5.52536 9.28078 4.78397 10.034 4.80401 10.9085C4.81904 11.8032 5.53538 12.5109 6.41202 12.5058ZM17.5679 12.5008C18.4496 12.521 19.181 11.8083 19.196 10.9085C19.211 10.039 18.4947 9.29595 17.618 9.28078C16.7564 9.26056 16.0351 9.97331 16 10.868C15.9699 11.7324 16.6913 12.4806 17.5679 12.5008ZM11.9975 12.5058C12.8791 12.5058 13.5955 11.788 13.5955 10.8984C13.5955 10.0188 12.8741 9.28078 12.0025 9.28078C11.1309 9.28078 10.4045 10.0137 10.4045 10.8933C10.4045 11.7779 11.1209 12.5008 11.9975 12.5058Z" fill="#F43756"/>
</g>
<defs>
<clipPath id="clip0_41_4100">
<rect width="24" height="23" fill="white"/>
</clipPath>
</defs>
</svg>
