<svg width="43" height="43" viewBox="0 0 43 43" fill="none" xmlns="http://www.w3.org/2000/svg">
<path d="M43 4.26967C42.7002 5.0833 42.0635 5.63937 41.4651 6.22777C35.4403 12.1602 29.4145 18.0916 23.3974 24.0317C22.637 24.7817 21.7716 25.1018 20.7422 24.7548C20.3746 24.6308 20.0168 24.3841 19.7379 24.1103C13.4177 17.9031 7.10632 11.6882 0.801487 5.46586C-0.284874 4.3936 -0.257523 3.03791 0.826649 1.95164C1.16032 1.61757 1.49837 1.2878 1.83424 0.956965C3.13284 -0.323287 4.42159 -0.318976 5.73004 0.969897C7.42139 2.63595 9.11275 4.302 10.8041 5.96805C14.2557 9.36805 17.7085 12.768 21.1579 16.1713C21.2651 16.278 21.345 16.4116 21.4577 16.5581C21.6426 16.3868 21.764 16.2812 21.8789 16.168C27.0426 11.0826 32.2108 6.00146 37.3658 0.906317C38.1141 0.167047 38.951 -0.135774 39.9827 0.148727C40.0363 0.163814 40.0932 0.178901 40.138 0.209075C41.2944 0.992529 42.3819 1.83849 42.93 3.17801C42.9453 3.21465 42.9759 3.24482 43 3.27823C43 3.60907 43 3.93991 43 4.26967Z" fill="#868686"/>
<path d="M43 22.3751C42.7002 23.1888 42.0635 23.7448 41.4651 24.3332C35.4403 30.2657 29.4145 36.1971 23.3974 42.1371C22.637 42.8872 21.7716 43.2072 20.7422 42.8602C20.3746 42.7363 20.0168 42.4895 19.7379 42.2158C13.4177 36.0085 7.10632 29.7937 0.801487 23.5713C-0.284874 22.4991 -0.257523 21.1434 0.826649 20.0571C1.16032 19.723 1.49837 19.3933 1.83424 19.0624C3.13284 17.7822 4.42159 17.7865 5.73004 19.0754C7.42139 20.7414 9.11275 22.4075 10.8041 24.0735C14.2557 27.4735 17.7085 30.8735 21.1579 34.2767C21.2651 34.3834 21.345 34.5171 21.4577 34.6636C21.6426 34.4923 21.764 34.3867 21.8789 34.2735C27.0426 29.1881 32.2108 24.1069 37.3658 19.0118C38.1141 18.2725 38.951 17.9697 39.9827 18.2542C40.0363 18.2693 40.0932 18.2844 40.138 18.3145C41.2944 19.098 42.3819 19.944 42.93 21.2835C42.9453 21.3201 42.9759 21.3503 43 21.3837C43 21.7145 43 22.0454 43 22.3751Z" fill="#868686"/>
</svg>
