<svg width="24" height="12" viewBox="0 0 24 12" fill="none" xmlns="http://www.w3.org/2000/svg">
<g clip-path="url(#clip0_57_1171)">
<path d="M23.9999 5.842C23.7503 5.53576 23.5265 5.21197 23.2468 4.92639C21.7375 3.3854 19.9742 2.099 17.8427 1.19269C16.3881 0.57402 14.8541 0.179994 13.2261 0.0503731C10.0636 -0.201639 7.20355 0.503787 4.58388 1.97145C2.88334 2.92424 1.465 4.12543 0.229245 5.48515C-0.075696 5.82031 -0.0763108 6.18335 0.226786 6.51747C1.65313 8.08583 3.31924 9.4342 5.35546 10.4381C7.0394 11.268 8.84384 11.7953 10.7958 11.9507C13.6374 12.1764 16.262 11.6212 18.7034 10.4082C20.7224 9.40528 22.3713 8.06053 23.7835 6.50043C23.8757 6.3987 23.9292 6.27217 24.0005 6.15753C23.9999 6.05218 23.9999 5.94683 23.9999 5.842ZM12.0525 1.76591C14.8769 1.80103 17.0742 3.71539 17.0434 6.11415C17.0152 8.37296 14.6838 10.2661 11.9713 10.2336C9.11743 10.199 6.9312 8.30273 6.95886 5.88693C6.9853 3.61882 9.31785 1.73183 12.0525 1.76591Z" fill="#F43756"/>
<path d="M14.7189 5.99804C14.7091 4.73281 13.4653 3.70772 11.9542 3.71908C10.4811 3.73045 9.27916 4.76483 9.28715 6.01456C9.29514 7.27204 10.5469 8.29351 12.0648 8.28164C13.525 8.27079 14.7281 7.23537 14.7189 5.99804Z" fill="#F43756"/>
</g>
<defs>
<clipPath id="clip0_57_1171">
<rect width="24" height="12" fill="white" transform="matrix(1 0 0 -1 0 12)"/>
</clipPath>
</defs>
</svg>
