<svg width="58" height="29" viewBox="0 0 58 29" fill="none" xmlns="http://www.w3.org/2000/svg">
<g clip-path="url(#clip0_35_3456)">
<path d="M57.9998 14.1186C57.3966 13.3786 56.8558 12.5961 56.1797 11.9059C52.5322 8.18187 48.271 5.07307 43.1198 2.88282C39.6045 1.3877 35.8975 0.43547 31.9632 0.12222C24.3204 -0.486809 17.4086 1.21797 11.0777 4.76482C6.96808 7.06739 3.54041 9.97026 0.55401 13.2563C-0.182932 14.0662 -0.184418 14.9436 0.548067 15.751C3.99505 19.5413 8.02149 22.7998 12.9424 25.2259C17.0119 27.2315 21.3726 28.5057 26.0899 28.8814C32.9572 29.4267 39.2999 28.0851 45.1999 25.1536C50.0792 22.7299 54.064 19.4801 57.4768 15.7099C57.6997 15.464 57.829 15.1582 58.0013 14.8812C57.9998 14.6266 57.9998 14.372 57.9998 14.1186ZM29.1269 4.26811C35.9525 4.35297 41.2626 8.97934 41.1883 14.7763C41.12 20.2351 35.4859 24.8103 28.9307 24.7317C22.0338 24.6481 16.7504 20.0654 16.8172 14.2272C16.8811 8.74597 22.5181 4.18574 29.1269 4.26811Z" fill="#F43756"/>
<path d="M35.5712 14.4957C35.5474 11.4381 32.5417 8.96078 28.8897 8.98823C25.3298 9.01569 22.4251 11.5155 22.4444 14.5356C22.4637 17.5745 25.4888 20.0431 29.1571 20.0144C32.6858 19.9882 35.5935 17.4859 35.5712 14.4957Z" fill="#F43756"/>
</g>
<defs>
<clipPath id="clip0_35_3456">
<rect width="58" height="29" fill="white" transform="matrix(1 0 0 -1 0 29)"/>
</clipPath>
</defs>
</svg>
