<svg width="32" height="16" viewBox="0 0 32 16" fill="none" xmlns="http://www.w3.org/2000/svg">
<g clip-path="url(#clip0_41_4117)">
<path d="M31.9999 7.78982C31.6671 7.3815 31.3687 6.94978 30.9957 6.56901C28.9833 4.51435 26.6323 2.79916 23.7903 1.59074C21.8508 0.765847 19.8055 0.240479 17.6349 0.0676498C13.4181 -0.268366 9.60474 0.672203 6.11184 2.62908C3.84446 3.89947 1.95333 5.50105 0.305661 7.31402C-0.100928 7.7609 -0.101748 8.24495 0.302382 8.69045C2.20417 10.7816 4.42565 12.5794 7.14061 13.918C9.38587 15.0245 11.7918 15.7275 14.3945 15.9348C18.1833 16.2357 21.6827 15.4955 24.9379 13.878C27.6299 12.5409 29.8284 10.7479 31.7114 8.66773C31.8343 8.53208 31.9056 8.36339 32.0007 8.21053C31.9999 8.07006 31.9999 7.92959 31.9999 7.78982ZM16.07 2.35504C19.8358 2.40186 22.7656 4.95434 22.7246 8.15269C22.6869 11.1644 19.5785 13.6887 15.9618 13.6453C12.1566 13.5992 9.24159 11.0708 9.27848 7.84972C9.31373 4.82558 12.4238 2.30959 16.07 2.35504Z" fill="#F43756"/>
<path d="M19.6252 7.99754C19.6121 6.31058 17.9538 4.94379 15.9389 4.95894C13.9748 4.97409 12.3722 6.35327 12.3829 8.01958C12.3935 9.69621 14.0625 11.0582 16.0864 11.0423C18.0333 11.0279 19.6375 9.64733 19.6252 7.99754Z" fill="#F43756"/>
</g>
<defs>
<clipPath id="clip0_41_4117">
<rect width="32" height="16" fill="white" transform="matrix(1 0 0 -1 0 16)"/>
</clipPath>
</defs>
</svg>
