<svg width="44" height="29" viewBox="0 0 44 29" fill="none" xmlns="http://www.w3.org/2000/svg">
<path d="M33.3196 1.8476C33.2885 1.87111 33.2606 1.90215 33.2255 1.91626C32.4019 2.24639 32.0794 2.69879 32.0794 3.5321C32.0794 14.3003 32.0794 10.0698 32.0794 20.838C32.0794 20.9922 32.0794 21.1474 32.0794 21.3985C31.919 21.2537 31.8145 21.1643 31.7155 21.0703C29.9358 19.3848 28.1617 17.6956 26.3757 16.0158C25.398 15.096 23.8698 15.4402 23.525 16.6545C23.3494 17.2724 23.5617 17.7972 24.0381 18.2468C25.6367 19.7535 27.2272 21.2678 28.8217 22.7773C30.0372 23.9286 31.2526 25.0798 32.4721 26.2272C33.2494 26.958 34.2158 26.9618 34.9924 26.2282C37.8063 23.5702 40.6131 20.9066 43.4255 18.2477C43.9243 17.7765 44.1318 17.231 43.9139 16.583C43.7016 15.9538 43.2244 15.5945 42.5373 15.5004C41.9451 15.4195 41.4702 15.6481 41.0592 16.0393C39.3027 17.7097 37.5406 19.3735 35.784 21.0439C35.6795 21.1436 35.6077 21.2725 35.5199 21.3882C35.476 21.3665 35.4313 21.344 35.3874 21.3223C35.3874 21.1747 35.3874 21.0261 35.3874 20.8784C35.3874 10.1873 35.3794 14.4969 35.401 3.8058C35.4026 2.8615 35.0881 2.20312 34.1472 1.84666C33.8711 1.8476 33.595 1.8476 33.3196 1.8476Z" fill="#0E0E0E"/>
<path d="M19.8205 14.3175C19.6976 13.8914 19.6106 13.4259 19.443 13.0487C19.0511 12.1656 18.4749 11.7884 17.7966 11.7875C15.8493 11.7846 13.902 11.7865 11.9547 11.7865C8.64678 11.7865 5.3396 11.7828 2.03163 11.7893C1.21681 11.7912 0.596715 12.3377 0.208058 13.4795C-0.305096 14.9853 0.201674 17.0385 1.24075 17.5859C1.5097 17.7279 1.80578 17.8078 2.08989 17.8088C7.29965 17.8219 12.5094 17.8078 17.7192 17.8266C18.7271 17.8304 19.5882 16.9002 19.7885 15.3577C19.7917 15.3314 19.8093 15.3098 19.8205 15.2863C19.8205 14.9627 19.8205 14.6401 19.8205 14.3175Z" fill="#0E0E0E"/>
<path d="M26.3026 25.333C26.1541 24.7875 26.0009 24.2486 25.6586 23.8131C25.1566 23.1754 24.5453 22.7992 23.8086 22.7982C16.7043 22.7898 9.60072 22.7907 2.49637 22.7964C1.35753 22.7973 0.350376 23.7877 0.0646698 25.1458C-0.193903 26.3779 0.343194 27.7765 1.31364 28.4085C1.72703 28.6785 2.16677 28.7998 2.63842 28.7998C9.64861 28.797 16.658 28.8007 23.6682 28.796C24.9634 28.7951 25.9067 27.9185 26.2475 26.44C26.2627 26.3732 26.2842 26.3074 26.3026 26.2415C26.3026 25.9378 26.3026 25.6358 26.3026 25.333Z" fill="#0E0E0E"/>
<path d="M26.303 3.36168C26.161 2.80112 26.003 2.25278 25.6518 1.81167C25.1882 1.22854 24.6311 0.878661 23.9512 0.819407C23.8059 0.80718 23.6607 0.805297 23.5154 0.805297C16.5994 0.804356 9.68419 0.808119 2.76817 0.799654C2.0547 0.798713 1.42902 1.01316 0.875166 1.55867C-0.246911 2.66474 -0.275641 4.85148 0.827282 6.00082C1.34922 6.54539 1.95175 6.8125 2.65086 6.8125C9.63471 6.80874 16.6194 6.81062 23.6032 6.81062C24.9663 6.81062 25.9192 5.93498 26.2576 4.37463C26.2655 4.33795 26.2871 4.30503 26.3023 4.27023C26.3031 3.96738 26.303 3.66453 26.303 3.36168Z" fill="#0E0E0E"/>
</svg>
