<svg width="44" height="29" viewBox="0 0 44 29" fill="none" xmlns="http://www.w3.org/2000/svg">
<path d="M33.3197 27.7526C33.2885 27.7291 33.2606 27.6981 33.2255 27.684C32.4019 27.3538 32.0795 26.9014 32.0795 26.0681C32.0795 15.2999 32.0795 19.5304 32.0795 8.76217C32.0795 8.60792 32.0795 8.45273 32.0795 8.20161C31.9191 8.34645 31.8145 8.4358 31.7156 8.52986C29.9359 10.2153 28.1618 11.9045 26.3757 13.5843C25.3981 14.5042 23.8698 14.1599 23.525 12.9457C23.3494 12.3278 23.5617 11.8029 24.0382 11.3534C25.6367 9.84661 27.2272 8.33234 28.8218 6.82277C30.0372 5.67155 31.2527 4.52033 32.4721 3.37287C33.2494 2.64207 34.2159 2.63831 34.9924 3.37193C37.8064 6.0299 40.6132 8.69351 43.4256 11.3524C43.9244 11.8236 44.1319 12.3691 43.914 13.0172C43.7017 13.6464 43.2245 14.0057 42.5373 14.0997C41.9452 14.1806 41.4703 13.9521 41.0593 13.5608C39.3028 11.8904 37.5406 10.2266 35.7841 8.55619C35.6796 8.45649 35.6077 8.32764 35.5199 8.21195C35.476 8.23359 35.4314 8.25616 35.3875 8.27779C35.3875 8.42546 35.3875 8.57406 35.3875 8.72173C35.3875 19.4129 35.3795 15.1033 35.401 25.7944C35.4026 26.7387 35.0882 27.3971 34.1473 27.7536C33.8711 27.7526 33.595 27.7526 33.3197 27.7526Z" fill="#797979"/>
<path d="M19.8206 15.2836C19.6977 15.7096 19.6107 16.1752 19.4431 16.5524C19.0512 17.4355 18.475 17.8127 17.7967 17.8136C15.8494 17.8165 13.9021 17.8146 11.9548 17.8146C8.64682 17.8146 5.33963 17.8183 2.03164 17.8118C1.21682 17.8099 0.596718 17.2634 0.208059 16.1216C-0.305098 14.6158 0.201675 12.5626 1.24076 12.0152C1.50971 11.8732 1.80579 11.7932 2.0899 11.7923C7.29968 11.7791 12.5095 11.7932 17.7192 11.7744C18.7272 11.7707 19.5883 12.7009 19.7886 14.2433C19.7918 14.2697 19.8094 14.2913 19.8206 14.3148C19.8206 14.6384 19.8206 14.961 19.8206 15.2836Z" fill="#797979"/>
<path d="M26.3027 4.26713C26.1543 4.81264 26.0011 5.35157 25.6587 5.78704C25.1567 6.42473 24.5454 6.80094 23.8088 6.80188C16.7044 6.81035 9.60077 6.80941 2.49638 6.80376C1.35754 6.80282 0.350378 5.81243 0.0646701 4.45429C-0.193904 3.22218 0.343195 1.8236 1.31365 1.19156C1.72704 0.921623 2.16678 0.800293 2.63844 0.800293C9.64866 0.803115 16.6581 0.799352 23.6683 0.804055C24.9636 0.804996 25.9069 1.68158 26.2477 3.16011C26.2628 3.22689 26.2844 3.29273 26.3027 3.35856C26.3027 3.66236 26.3027 3.96427 26.3027 4.26713Z" fill="#797979"/>
<path d="M26.3032 26.238C26.1611 26.7985 26.0031 27.3469 25.652 27.788C25.1883 28.3711 24.6312 28.721 23.9513 28.7802C23.806 28.7925 23.6608 28.7943 23.5155 28.7943C16.5995 28.7953 9.68424 28.7915 2.76819 28.8C2.05471 28.8009 1.42903 28.5865 0.87517 28.041C-0.246912 26.9349 -0.275643 24.7481 0.827286 23.5988C1.34922 23.0542 1.95176 22.7871 2.65087 22.7871C9.63476 22.7909 16.6194 22.789 23.6033 22.789C24.9664 22.789 25.9193 23.6646 26.2577 25.225C26.2657 25.2617 26.2872 25.2946 26.3024 25.3294C26.3032 25.6322 26.3032 25.9351 26.3032 26.238Z" fill="#797979"/>
</svg>
