<svg width="28" height="32" viewBox="0 0 28 32" fill="none" xmlns="http://www.w3.org/2000/svg">
<path d="M23.3639 32C23.7931 31.88 24.2355 31.7944 24.649 31.635C26.8514 30.7862 28.1402 28.6143 27.9808 26.4211C27.7957 23.8648 25.9146 21.9498 23.5396 21.5829C21.8354 21.3198 20.3396 21.8142 19.0758 22.9886C18.9999 23.0586 18.9259 23.1305 18.8261 23.2248C15.9511 21.451 13.0785 19.6791 10.1909 17.8978C10.6647 16.6303 10.664 15.3697 10.1909 14.1028C13.0729 12.3246 15.9391 10.5565 18.8179 8.78017C18.8863 8.8408 18.9491 8.89267 19.0081 8.9483C20.5479 10.3902 22.3487 10.8658 24.356 10.2108C26.35 9.56019 27.5466 8.12703 27.9206 6.07449C28.4351 3.25131 26.3889 0.476257 23.5352 0.0593758C23.4762 0.0506248 23.4198 0.0200005 23.3627 0C22.9235 0 22.4842 0 22.045 0C21.533 0.161879 20.999 0.27438 20.5127 0.493759C18.1077 1.5794 16.9061 4.29633 17.7092 6.79951C17.7958 7.06826 17.7456 7.18639 17.5034 7.33452C14.7984 8.9883 12.1022 10.6546 9.40786 12.3252C9.23781 12.4309 9.14495 12.439 8.98934 12.2927C7.49534 10.8858 5.74032 10.3933 3.76506 10.9921C1.7829 11.5927 0.564992 12.9671 0.1151 14.979C-0.529935 17.8635 1.616 20.8385 4.55504 21.1929C6.27681 21.4004 7.74947 20.8998 8.98934 19.7091C9.14369 19.561 9.23719 19.5704 9.40723 19.676C12.1285 21.3629 14.8536 23.0429 17.5812 24.718C17.7513 24.8224 17.7958 24.9049 17.7306 25.1105C16.7323 28.2618 18.6529 31.3737 21.9402 31.945C21.9779 31.9512 22.0111 31.9812 22.0463 32C22.4855 32 22.9247 32 23.3639 32ZM5.29106 19.3154C3.44568 19.3173 1.96361 17.8522 1.95608 16.0184C1.94855 14.1797 3.4231 12.689 5.25404 12.6834C7.10443 12.6777 8.616 14.1665 8.61788 15.9966C8.61976 17.8147 7.11698 19.3135 5.29106 19.3154ZM19.4021 26.7786C19.3958 24.9486 20.8742 23.4511 22.702 23.4373C24.5329 23.423 26.062 24.9349 26.0627 26.7599C26.0639 28.5831 24.5718 30.0681 22.7352 30.0718C20.8854 30.0762 19.4084 28.6162 19.4021 26.7786ZM22.7164 1.92754C24.5555 1.92441 26.0539 3.39944 26.0627 5.22135C26.0714 7.04826 24.5542 8.56454 22.7202 8.56204C20.893 8.55954 19.4021 7.06639 19.4021 5.23948C19.4015 3.39882 20.8704 1.93066 22.7164 1.92754Z" fill="black"/>
</svg>
