<svg width="36" height="36" viewBox="0 0 36 36" fill="none" xmlns="http://www.w3.org/2000/svg">
<path d="M17.7676 0C7.93034 0.0301857 0 7.93883 0 17.7492C0 27.5595 7.99088 35.4984 17.7979 35.4682C27.6351 35.438 35.5655 27.4992 35.5655 17.719C35.5655 7.93884 27.6049 0 17.7676 0ZM22.4289 11.4706C22.4289 12.0139 22.1868 12.2252 21.642 12.2554C21.1274 12.2554 20.6128 12.2554 20.068 12.2554C19.6745 12.2554 19.5837 12.3761 19.5534 12.7685C19.5534 13.1911 19.5534 13.6439 19.5534 14.1269C20.2193 14.1269 20.8247 14.1269 21.4604 14.1269C22.1868 14.1269 22.3987 14.3382 22.3381 15.0627C22.2776 15.8475 22.2171 16.6625 22.1263 17.4473C22.096 17.8699 21.8538 18.1114 21.3998 18.1114C20.7944 18.1114 20.1891 18.1114 19.5232 18.1114C19.5232 18.2623 19.5232 18.4133 19.5232 18.5642C19.5232 21.13 19.5232 23.7259 19.5232 26.2917C19.5232 27.0464 19.3113 27.2275 18.5849 27.2275C17.6768 27.2275 16.799 27.2275 15.8909 27.2275C15.1342 27.2275 14.9526 27.0464 14.9526 26.3219C14.9526 23.7561 14.9526 21.1602 14.9526 18.5944C14.9526 18.4435 14.9526 18.3227 14.9526 18.1114C14.5591 18.1114 14.2262 18.1114 13.8932 18.1114C13.3484 18.1114 13.1063 17.8699 13.1063 17.3266C13.1063 16.5116 13.1063 15.6664 13.1063 14.8514C13.1063 14.3382 13.3787 14.0967 13.863 14.0967C14.2262 14.0967 14.5591 14.0967 14.9526 14.0967C14.9526 13.4628 14.9224 12.8289 14.9526 12.2252C14.9526 11.8026 14.9829 11.38 15.0737 10.9574C15.4975 9.32737 16.8898 8.27087 18.6757 8.24069C19.6442 8.2105 20.6128 8.24069 21.5814 8.24069C22.1263 8.24069 22.3684 8.48217 22.3684 9.02552C22.4592 9.87072 22.4592 10.6555 22.4289 11.4706Z" fill="black"/>
</svg>
