<svg width="36" height="36" viewBox="0 0 36 36" fill="none" xmlns="http://www.w3.org/2000/svg">
<path d="M17.7828 0C7.96026 0 0 7.93848 0 17.7341C0 27.5298 7.96026 35.4683 17.7828 35.4683C27.6053 35.4683 35.5656 27.5298 35.5656 17.7341C35.5656 7.93848 27.6053 0 17.7828 0ZM27.5688 22.723C27.5688 25.3813 25.4144 27.5298 22.7488 27.5298H12.7802C10.1146 27.5298 7.96026 25.3813 7.96026 22.723V12.7817C7.96026 10.1234 10.1146 7.9749 12.7802 7.9749H22.7488C25.4144 7.9749 27.5688 10.1234 27.5688 12.7817V22.723Z" fill="black"/>
<path d="M22.749 10.1602H12.7804C11.3564 10.1602 10.1514 11.3254 10.1514 12.782V22.7233C10.1514 24.1435 11.3198 25.3452 12.7804 25.3452H22.749C24.1731 25.3452 25.3781 24.18 25.3781 22.7233V12.782C25.3781 11.3254 24.2096 10.1602 22.749 10.1602ZM17.783 22.6141C15.0809 22.6141 12.89 20.4292 12.89 17.7345C12.89 15.0398 15.0809 12.8549 17.783 12.8549C20.4851 12.8549 22.676 15.0398 22.676 17.7345C22.6395 20.4292 20.4486 22.6141 17.783 22.6141ZM23.1142 13.9473C22.4204 13.9473 21.8727 13.4011 21.8727 12.7092C21.8727 12.0173 22.4204 11.4711 23.1142 11.4711C23.808 11.4711 24.3557 12.0173 24.3557 12.7092C24.3557 13.4011 23.808 13.9473 23.1142 13.9473Z" fill="black"/>
<path d="M17.7832 15.0762C16.286 15.0762 15.0811 16.2779 15.0811 17.7709C15.0811 19.2639 16.286 20.4656 17.7832 20.4656C19.2803 20.4656 20.4853 19.2639 20.4853 17.7709C20.4487 16.2779 19.2438 15.0762 17.7832 15.0762Z" fill="black"/>
</svg>
