<svg width="36" height="36" viewBox="0 0 36 36" fill="none" xmlns="http://www.w3.org/2000/svg">
<path d="M22.0987 0.548841C21.2097 0.337746 20.3207 0.168881 19.3893 0.084443C19.3046 0.084443 19.22 0.126657 19.1353 0C18.2039 0 17.2302 0 16.2989 0C15.7909 0.168876 15.2405 0.168878 14.6902 0.253316C10.626 0.971038 7.19691 2.87089 4.48748 5.95287C2.11674 8.65488 0.677356 11.8213 0.169339 15.3677C0.127004 15.6632 0.169339 16.001 0 16.2965C0 17.2675 0 18.2386 0 19.2096C0.169339 19.7162 0.169339 20.3073 0.254008 20.8139C1.1007 25.458 3.47145 29.2155 7.23924 32.0019C10.499 34.4084 14.1821 35.5483 18.2463 35.4639C26.2899 35.295 33.4444 29.4266 35.1378 21.5739C37.1699 12.1591 31.497 2.99754 22.0987 0.548841ZM26.5439 12.4124C26.1629 13.0034 25.6549 13.5101 25.1045 13.9322C24.8928 14.1011 24.8505 14.27 24.8505 14.5233C24.7235 18.7452 22.9031 22.0383 19.093 23.9381C15.7909 25.5847 12.4464 25.3736 9.22897 23.5582C9.18664 23.5159 9.1443 23.4737 9.05963 23.4315C10.9647 23.5159 12.6581 23.0938 14.2245 21.9116C13.9281 21.8694 13.6741 21.8272 13.4624 21.785C12.3194 21.4894 11.4727 20.7717 10.9647 19.674C10.88 19.4629 10.8377 19.3363 11.134 19.3785C11.515 19.4207 11.9384 19.4207 12.3194 19.2941C12.2771 19.1674 12.1501 19.2096 12.0654 19.1674C10.5837 18.6185 9.77932 17.5631 9.56765 16.001C9.52532 15.7054 9.60998 15.7054 9.86399 15.7899C10.245 15.9588 10.626 16.0854 11.0494 16.0854C11.0494 15.9165 10.88 15.8743 10.7954 15.7899C9.60999 14.7344 9.27131 12.9612 9.94866 11.5258C10.0757 11.2724 10.118 11.2725 10.3297 11.4836C12.1077 13.5101 14.3515 14.65 17.0186 14.9877C17.6112 15.0722 17.6112 15.0722 17.5689 14.5233C17.4842 12.9612 18.2463 11.6102 19.6433 10.9347C20.998 10.3014 22.5221 10.5125 23.6651 11.568C23.8345 11.6946 23.9615 11.7369 24.1731 11.6946C24.8505 11.5258 25.4855 11.2725 26.0782 10.9347C26.0782 11.3991 25.7395 11.8635 24.7658 12.8346C25.1045 12.8768 25.4008 12.7501 25.6972 12.6657C25.9512 12.539 26.2475 12.4546 26.5439 12.4124C26.5015 12.3701 26.5439 12.3279 26.5439 12.3279C26.5862 12.3279 26.5862 12.3701 26.5439 12.4124Z" fill="black"/>
</svg>
