<svg width="38" height="29" viewBox="0 0 38 29" fill="none" xmlns="http://www.w3.org/2000/svg">
<path d="M0 21.0082C0 16.6784 0 12.3486 0 8.01878C0.0640877 7.5858 0.112156 7.15282 0.208288 6.71984C1.08949 2.66715 4.1657 0.0173192 8.02698 0C15.349 0 22.671 0 29.993 0C30.6019 0 31.2107 0.0519586 31.7875 0.190512C35.5046 1.12575 37.9559 4.45103 37.988 8.57299C38.004 12.5218 38.004 16.4532 37.988 20.402C37.988 21.9261 37.6836 23.3809 36.9466 24.6971C35.3604 27.5375 33.0212 28.9923 29.945 28.9923C22.655 29.0096 15.349 28.9923 8.05903 28.9923C7.86677 28.9923 7.69053 28.9923 7.49826 28.975C4.10161 28.8018 1.13756 26.2212 0.288398 22.6535C0.176244 22.1339 0.112153 21.5624 0 21.0082ZM13.7789 14.4961C13.7789 16.2454 13.7789 17.9946 13.7789 19.7439C13.7789 20.4713 14.0192 20.6445 14.628 20.3327C17.9446 18.6354 21.2451 16.9208 24.5616 15.2062C24.7859 15.085 25.0743 14.9638 25.0102 14.652C24.9622 14.4442 24.7539 14.2364 24.5776 14.1324C21.2611 12.2966 17.9446 10.4954 14.628 8.67691C14.0512 8.36516 13.7949 8.53835 13.7949 9.23112C13.7789 10.9977 13.7789 12.7469 13.7789 14.4961Z" fill="black"/>
</svg>
