<svg width="32" height="33" viewBox="0 0 32 33" fill="none" xmlns="http://www.w3.org/2000/svg">
<path d="M20.2395 0C20.7086 0.147809 21.2031 0.243197 21.6433 0.453738C23.5449 1.36465 24.5373 2.9175 24.6611 5.0401C24.7052 5.79547 24.1598 6.41507 23.472 6.44428C22.7001 6.47694 22.1335 5.95102 22.0996 5.12604C22.0741 4.5116 21.8926 3.96935 21.5042 3.50272C20.9961 2.89258 20.3337 2.58321 19.5559 2.58235C14.7416 2.57462 9.92821 2.57032 5.11394 2.58321C3.58212 2.58665 2.55328 3.86709 2.56261 5.28674C2.59315 9.82928 2.57364 14.3727 2.57364 18.9161C2.57364 22.2993 2.57279 25.6826 2.57449 29.0659C2.57533 29.8144 2.93496 30.263 3.64404 30.3944C4.10884 30.4804 4.48628 30.3068 4.81114 29.9665C6.37179 28.3311 7.93753 26.7009 9.50242 25.0699C10.1072 24.4391 10.7136 23.8092 11.3192 23.1776C11.9613 22.5082 12.7001 22.5004 13.3404 23.1681C15.5118 25.4291 17.6797 27.6926 19.8502 29.9545C20.3244 30.4486 20.8706 30.5543 21.4295 30.2552C21.857 30.0266 22.0708 29.6666 22.0987 29.1681C22.153 28.1997 22.969 27.6093 23.8053 27.9109C24.3591 28.1111 24.701 28.6577 24.6577 29.2738C24.5203 31.2254 23.3439 32.5643 21.4312 32.9476C21.3914 32.9553 21.3557 32.982 21.3176 33C20.9579 33 20.5983 33 20.2378 33C20.2132 32.982 20.1903 32.951 20.164 32.9467C19.304 32.8127 18.6051 32.3838 18.0088 31.7548C17.2463 30.9496 16.4762 30.153 15.7086 29.3529C14.5873 28.1842 13.466 27.0163 12.3175 25.8192C12.2387 25.9146 12.1759 26.0014 12.1021 26.0779C10.2955 27.9633 8.48461 29.8453 6.68137 31.7333C6.19367 32.2438 5.63981 32.6382 4.96466 32.8427C4.78654 32.8969 4.60757 32.9467 4.42946 32.9991C4.04862 32.9991 3.66779 32.9991 3.28696 32.9991C3.23098 32.9768 3.17585 32.9467 3.11817 32.9347C2.43114 32.7955 1.81706 32.5024 1.28949 32.0324C0.380244 31.2211 0.000259647 30.1779 0.00110783 28.9705C0.00195601 26.2111 0.00110783 23.4517 0.00110783 20.6924C0.00110783 15.5491 -0.00228489 10.4059 0.00280419 5.26353C0.00534873 2.98281 1.31155 1.06474 3.37517 0.302492C3.71783 0.176167 4.07831 0.0996849 4.4303 0C9.70005 0 14.9698 0 20.2395 0Z" fill="white"/>
<path d="M23.3768 8.31494C28.1088 8.31408 31.9511 12.2001 31.9672 17.0021C31.9842 21.7965 28.1148 25.7177 23.37 25.716C18.6465 25.7143 14.7898 21.799 14.7949 17.0116C14.8 12.2173 18.6508 8.31494 23.3768 8.31494ZM29.3955 17.0305C29.404 13.6507 26.7102 10.8973 23.3895 10.8921C20.0842 10.887 17.3853 13.6163 17.3683 16.9824C17.3513 20.3613 20.0341 23.119 23.3582 23.1379C26.672 23.156 29.387 20.4103 29.3955 17.0305Z" fill="white"/>
<path d="M22.096 18.3031C21.6491 18.3031 21.2487 18.3057 20.8484 18.3023C20.1367 18.2963 19.571 17.736 19.5583 17.0279C19.5464 16.3163 20.1266 15.7311 20.8518 15.7259C21.2521 15.7234 21.6524 15.7251 22.096 15.7251C22.096 15.298 22.0876 14.8941 22.0977 14.4911C22.1223 13.5157 23.0002 12.878 23.8467 13.2295C24.3929 13.4564 24.6516 13.9024 24.6669 14.4919C24.6771 14.8881 24.6686 15.2842 24.6686 15.7242C25.0859 15.7242 25.4845 15.7225 25.8823 15.7242C26.6219 15.7268 27.1911 16.2759 27.2046 16.9969C27.2182 17.7188 26.6313 18.298 25.8806 18.3014C25.4913 18.3031 25.1011 18.3014 24.6686 18.3014C24.6686 18.7285 24.6779 19.1324 24.6669 19.5355C24.6406 20.4988 23.7941 21.121 22.9459 20.8082C22.4328 20.6182 22.1105 20.1413 22.0986 19.532C22.0893 19.1384 22.096 18.7423 22.096 18.3031Z" fill="white"/>
</svg>
