<svg width="54" height="25" viewBox="0 0 54 25" fill="none" xmlns="http://www.w3.org/2000/svg">
<path d="M0 11.2497C0 12.0831 0 12.9152 0 13.7486C0.2083 14.1938 0.16636 14.6863 0.278199 15.1524C0.961812 18.013 2.40733 20.3992 4.72938 22.2386C6.90744 23.9638 9.39585 24.9628 12.1848 24.9739C21.7037 25.0143 31.2226 24.9823 40.7428 24.999C42.967 25.0032 45.0682 24.5635 47.0226 23.5019C50.1107 21.8253 52.1378 19.3 53.1681 15.9566C53.403 15.1942 53.4533 14.4039 53.6658 13.6442C53.6658 12.8804 53.6658 12.1165 53.6658 11.3541C53.6322 11.2775 53.5707 11.201 53.5693 11.1231C53.5414 10.2118 53.2953 9.34496 52.9989 8.49623C52.1979 6.20051 50.8558 4.27211 48.9378 2.75276C46.7709 1.03723 44.3007 0.0340672 41.5313 0.0229378C31.8209 -0.0188026 22.1091 0.0104141 12.3987 0.00623894C11.4523 0.00623894 10.5142 0.114763 9.61393 0.362423C4.84401 1.67864 1.74468 4.69786 0.391435 9.44652C0.220881 10.0365 0.127216 10.6473 0 11.2497ZM13.6345 21.7919C12.8908 21.8392 12.1541 21.8726 11.4033 21.7836C7.00949 21.2591 3.4642 17.5845 3.16224 13.2018C2.88544 9.16965 5.17813 5.43666 8.93311 3.86723C10.4331 3.23973 12.0017 2.97676 13.6317 3.20494C13.8778 3.07555 14.1448 3.1326 14.402 3.1312C23.1842 3.12842 31.9663 3.12842 40.7484 3.12842C41.2727 3.12842 41.7913 3.15347 42.3142 3.21468C46.7066 3.72392 50.2924 7.53899 50.5091 11.9523C50.7761 17.3828 46.5263 21.8587 41.0644 21.8657C32.1243 21.8768 23.1856 21.8671 14.2455 21.8629C14.0427 21.8629 13.8275 21.9088 13.6345 21.7919Z" fill="#D8E3FE"/>
<path d="M13.6343 21.7927C13.8272 21.9096 14.0425 21.8637 14.248 21.8637C23.1883 21.8678 32.1272 21.8762 41.0676 21.8665C46.5296 21.8595 50.7796 17.3834 50.5126 11.9529C50.2959 7.53942 46.71 3.72425 42.3174 3.21501C41.7945 3.15518 41.2745 3.12874 40.7516 3.12874C31.9693 3.12874 23.1869 3.12875 14.4046 3.13153C14.1473 3.13153 13.8803 3.07448 13.6343 3.20527C13.8426 3.22892 14.0523 3.24006 14.2564 3.27901C19.3382 4.26689 22.5746 8.76244 21.9035 13.8952C21.3709 17.9636 17.7137 21.4588 13.6343 21.7927Z" fill="#FEDD41"/>
<path d="M13.6343 21.7927C17.7123 21.4588 21.3709 17.9636 21.9022 13.8938C22.5732 8.76104 19.3354 4.26549 14.255 3.27761C14.0509 3.23726 13.8398 3.22752 13.6329 3.20387C12.0028 2.97568 10.4342 3.23865 8.93418 3.86616C5.17911 5.43564 2.88636 9.16871 3.16317 13.2009C3.46514 17.5838 7.01051 21.2584 11.4045 21.783C12.1552 21.8734 12.8906 21.8414 13.6343 21.7927ZM7.35442 8.81669C7.40055 8.2671 7.65639 7.76342 8.25334 7.47958C8.87127 7.186 9.44306 7.29313 9.96312 7.70776C10.1532 7.85942 10.3182 8.0403 10.4888 8.21562C10.6006 8.3311 10.7125 8.35197 10.8634 8.28658C11.0214 8.2184 11.1207 8.14187 11.1137 7.94708C11.0997 7.60063 11.1039 7.25278 11.1123 6.90633C11.1333 6.01028 11.7931 5.33129 12.6487 5.31598C13.5253 5.30207 14.2187 5.98245 14.2494 6.89937C14.2592 7.19434 14.2508 7.48932 14.2522 7.78429C14.2536 7.98743 14.2145 8.18222 14.4871 8.29075C14.7667 8.40206 14.8646 8.20448 15.0114 8.0737C15.1414 7.95821 15.2546 7.82325 15.3874 7.71194C16.0375 7.1693 16.942 7.19713 17.5264 7.77038C18.1122 8.34501 18.1499 9.23967 17.6089 9.89362C17.4649 10.0675 17.3013 10.2262 17.1363 10.3792C16.9909 10.5142 16.9476 10.638 17.0357 10.8356C17.1168 11.0179 17.2342 11.0471 17.4034 11.0429C17.7347 11.0373 18.0674 11.0359 18.3988 11.0429C19.327 11.0624 20.0191 11.74 20.0121 12.611C20.0051 13.4569 19.3242 14.1262 18.4267 14.1582C18.0772 14.1707 17.7277 14.1693 17.3782 14.1582C17.1937 14.1526 17.0986 14.2222 17.0245 14.3892C16.9462 14.5659 16.9923 14.6814 17.1182 14.8024C17.2929 14.9708 17.4733 15.1391 17.6256 15.327C18.1443 15.9684 18.1052 16.8436 17.5432 17.4112C16.9686 17.9928 16.0557 18.036 15.4056 17.5017C15.2448 17.3695 15.0994 17.2178 14.954 17.0676C14.8142 16.9229 14.694 16.8171 14.4591 16.9215C14.2452 17.0161 14.248 17.1636 14.2494 17.3389C14.2508 17.6686 14.2606 17.9984 14.2466 18.3282C14.2103 19.2117 13.5253 19.8823 12.6697 19.8837C11.8169 19.8851 11.1333 19.2033 11.1095 18.317C11.0997 17.9525 11.1235 17.5879 11.1011 17.2248C11.0829 16.9145 10.753 16.7782 10.5083 16.973C10.3462 17.1024 10.212 17.2679 10.0582 17.4085C9.36616 18.0401 8.41971 18.0374 7.80318 17.4057C7.19924 16.7851 7.21042 15.871 7.83394 15.2031C7.96395 15.0626 8.10096 14.929 8.24216 14.7982C8.37218 14.6772 8.40433 14.5603 8.33024 14.385C8.25614 14.2125 8.15269 14.1554 7.97374 14.1596C7.58929 14.1679 7.20343 14.1791 6.82177 14.154C5.97178 14.097 5.3231 13.3832 5.34687 12.5581C5.36924 11.7483 6.02211 11.0874 6.85253 11.0443C7.14891 11.029 7.44669 11.054 7.74307 11.0359C7.94718 11.0234 8.18065 11.1389 8.32325 10.837C8.47703 10.5072 8.23237 10.3903 8.06881 10.2387C7.67457 9.86997 7.37819 9.45812 7.35442 8.81669Z" fill="#4FC3FD"/>
<path d="M7.35479 8.81487C7.37856 9.45769 7.67494 9.86815 8.06918 10.2383C8.23135 10.3899 8.4774 10.5068 8.32362 10.8365C8.18102 11.1399 7.94755 11.023 7.74344 11.0355C7.44706 11.0536 7.14929 11.0286 6.85291 11.0439C6.02248 11.087 5.36961 11.7479 5.34724 12.5577C5.32487 13.3842 5.97216 14.0966 6.82215 14.1536C7.20521 14.18 7.59106 14.1675 7.97412 14.1592C8.15306 14.155 8.25652 14.2106 8.33061 14.3846C8.4061 14.5599 8.37395 14.6781 8.24253 14.7978C8.10273 14.9272 7.96573 15.0622 7.83431 15.2027C7.2108 15.8706 7.19961 16.7847 7.80356 17.4053C8.42008 18.0369 9.36654 18.0397 10.0586 17.408C10.2123 17.2675 10.3465 17.1019 10.5087 16.9725C10.7534 16.7763 11.0833 16.9127 11.1015 17.2244C11.1224 17.5875 11.0987 17.9535 11.1099 18.3166C11.135 19.2029 11.8173 19.8847 12.6701 19.8833C13.5256 19.8819 14.2093 19.2113 14.247 18.3277C14.261 17.998 14.2526 17.6682 14.2498 17.3385C14.2484 17.1632 14.2456 17.0157 14.4595 16.9211C14.6944 16.8167 14.816 16.9224 14.9544 17.0671C15.0998 17.2174 15.2438 17.3691 15.406 17.5013C16.056 18.0342 16.969 17.9924 17.5435 17.4108C18.1055 16.8431 18.1447 15.968 17.626 15.3265C17.4736 15.1387 17.2933 14.9703 17.1185 14.802C16.9927 14.6809 16.9466 14.5654 17.0249 14.3887C17.099 14.2218 17.194 14.1522 17.3786 14.1578C17.7281 14.1689 18.0776 14.1689 18.4271 14.1578C19.3232 14.1272 20.004 13.4579 20.0124 12.6106C20.0194 11.7382 19.3274 11.062 18.3991 11.0425C18.0678 11.0355 17.7351 11.0369 17.4037 11.0425C17.2346 11.0453 17.1171 11.016 17.0361 10.8352C16.9494 10.6376 16.9913 10.5137 17.1367 10.3788C17.3031 10.2257 17.4653 10.0657 17.6092 9.89319C18.1517 9.23924 18.1125 8.34459 17.5268 7.76995C16.9424 7.1967 16.0379 7.16887 15.3878 7.71151C15.255 7.82282 15.1403 7.95778 15.0117 8.07327C14.8649 8.20406 14.7671 8.40163 14.4875 8.29032C14.2149 8.1818 14.254 7.987 14.2526 7.78386C14.2512 7.48889 14.2596 7.19392 14.2498 6.89894C14.2177 5.98342 13.5256 5.30164 12.6491 5.31555C11.7935 5.32947 11.1322 6.00985 11.1127 6.9059C11.1043 7.25235 11.1001 7.6002 11.1141 7.94665C11.1224 8.14145 11.0232 8.21797 10.8638 8.28615C10.7128 8.35015 10.601 8.32928 10.4891 8.21519C10.32 8.04127 10.1536 7.859 9.96349 7.70734C9.44343 7.2927 8.87024 7.18557 8.25372 7.47915C7.65677 7.7616 7.40093 8.26389 7.35479 8.81487Z" fill="#FEDD41"/>
</svg>
