<svg width="13" height="11" viewBox="0 0 13 11" fill="none" xmlns="http://www.w3.org/2000/svg">
<path d="M3 5.35181C3.051 5.23561 3.085 5.10884 3.155 5.00645C3.305 4.78704 3.52699 4.68871 3.79099 4.68221C3.80699 4.68221 3.82199 4.68221 3.83799 4.68221C5.94795 4.68221 8.05792 4.68302 10.1679 4.6814C10.3879 4.6814 10.5809 4.74153 10.7499 4.88699C11.0829 5.17385 11.0839 5.74918 10.7499 6.03604C10.5899 6.17337 10.4079 6.24082 10.1989 6.24163C8.06792 6.24163 5.93695 6.24245 3.80599 6.24082C3.39899 6.24082 3.105 5.99866 3.013 5.59885C3.011 5.5891 3.004 5.58016 3 5.57122C3 5.49808 3 5.42495 3 5.35181Z" fill="white"/>
<path d="M2 2.24034C2.04456 2.08747 2.10094 1.9411 2.22553 1.82157C2.38921 1.66544 2.58746 1.57681 2.82662 1.56299C2.85845 1.56136 2.89119 1.56136 2.92302 1.56136C5.30831 1.56136 7.69451 1.56217 10.0798 1.56055C10.3844 1.56055 10.6309 1.65813 10.8228 1.87036C11.1801 2.26636 10.971 2.91119 10.429 3.0665C10.3171 3.09903 10.1944 3.11692 10.0762 3.11692C7.6936 3.12017 5.31103 3.11692 2.92756 3.12098C2.4847 3.1218 2.09185 2.86728 2.01182 2.46396C2.01091 2.45827 2.00455 2.45176 2 2.44526C2 2.37695 2 2.30865 2 2.24034Z" fill="white"/>
<path d="M2 8.47688C2.04636 8.33629 2.09545 8.19895 2.20635 8.08437C2.3727 7.9129 2.58087 7.82188 2.83176 7.804C2.86085 7.80156 2.88994 7.80238 2.91994 7.80238C5.30795 7.80238 7.69506 7.80238 10.0831 7.80238C10.4558 7.80238 10.7339 7.94703 10.9103 8.24365C11.1439 8.6386 10.9003 9.17739 10.4221 9.30904C10.3067 9.34074 10.1812 9.35699 10.0603 9.35699C7.68688 9.35943 5.31431 9.35536 2.94084 9.36268C2.48815 9.3643 2.09181 9.10669 2.01273 8.71011C2.01091 8.69955 2.00455 8.69061 2 8.68086C2 8.61341 2 8.54515 2 8.47688Z" fill="white"/>
</svg>
