<svg width="35" height="35" viewBox="0 0 35 35" fill="none" xmlns="http://www.w3.org/2000/svg">
<path d="M15.1824 0C14.5443 0 13.9063 0 13.2697 0C13.1695 0.0197677 13.0707 0.0480073 12.9704 0.0564792C11.4516 0.180733 9.9807 0.523845 8.59594 1.15359C3.92925 3.27721 1.1075 6.8594 0.209732 11.9242C-0.203861 14.2568 -0.000595093 16.5541 0.78001 18.785C2.28334 23.0788 5.2152 25.9931 9.45277 27.5901C11.5123 28.3667 13.6607 28.5488 15.8359 28.2806C17.7035 28.049 19.4566 27.4362 21.0927 26.4972C21.6248 26.1922 21.7618 26.2219 22.1951 26.654C24.4903 28.9498 26.7856 31.2457 29.0808 33.5416C29.6087 34.0697 30.1875 34.5272 30.9003 34.7771C32.0522 35.1823 33.1038 35.0637 34.027 34.184C34.5126 33.7209 34.8274 33.1745 35.001 32.5363C35.001 32.2172 35.001 31.898 35.001 31.5789C34.9304 31.3558 34.8655 31.1299 34.7864 30.9097C34.5309 30.1994 34.0849 29.6149 33.5569 29.0868C31.2871 26.8163 29.0173 24.5459 26.7475 22.2768C26.1899 21.7191 26.1744 21.6612 26.5527 20.9863C27.5267 19.2495 28.128 17.3998 28.32 15.4132C28.5317 13.2232 28.3002 11.0812 27.4518 9.05785C25.3613 4.07356 21.6404 1.07875 16.2905 0.153906C15.9235 0.0903667 15.5522 0.0508313 15.1824 0ZM3.72457 14.2271C3.73304 8.64838 8.08636 3.77987 14.1519 3.72622C19.7347 3.67538 24.575 8.04829 24.6682 14.0591C24.7571 19.7861 20.281 24.5826 14.3199 24.6645C8.59594 24.7421 3.80785 20.2365 3.72457 14.2271Z" fill="white"/>
<path d="M9.0784 7.74744C9.06993 8.74713 10.0072 9.43476 10.9756 9.16507C11.6729 8.97163 12.3716 8.7443 13.0859 8.66382C15.518 8.3899 18.0645 9.83294 19.15 12.0356C19.246 12.2291 19.3378 12.4253 19.4493 12.6089C19.8643 13.2994 20.6745 13.545 21.3662 13.1949C22.0649 12.8419 22.3741 12.0427 22.0621 11.3085C21.5681 10.1422 20.8665 9.11142 19.9462 8.24023C18.6348 7.00051 17.0877 6.19709 15.3162 5.84833C13.4811 5.48686 11.6955 5.68595 9.97334 6.41171C9.39883 6.65457 9.10239 7.1177 9.0784 7.74744Z" fill="white"/>
</svg>
