<svg width="28" height="34" viewBox="0 0 28 34" fill="none" xmlns="http://www.w3.org/2000/svg">
<path d="M5.10243 34C4.89196 33.9551 4.68231 33.9078 4.47102 33.8671C2.00786 33.3915 0.316691 31.6085 0.0610015 29.0726C-0.0458781 28.0134 0.00673956 26.9294 0.0741559 25.8627C0.155549 24.5736 0.388218 23.2994 0.775451 22.0634C1.28354 20.4415 2.00374 18.9407 3.32905 17.8234C4.49486 16.8414 5.86703 16.4148 7.36335 16.428C7.69961 16.4314 8.05396 16.6181 8.36391 16.7891C8.85226 17.0581 9.30774 17.3868 9.77883 17.6881C11.2299 18.617 12.8019 19.1191 14.53 18.9888C15.8019 18.8925 16.9776 18.4617 18.0661 17.7919C18.4394 17.5619 18.8266 17.3453 19.1637 17.068C20.05 16.3392 21.0341 16.3317 22.0799 16.5658C24.0522 17.0066 25.4211 18.2069 26.3674 19.9675C27.1764 21.4741 27.6113 23.1019 27.7979 24.7878C27.9352 26.0254 27.9993 27.278 28.0002 28.5239C28.0018 31.1843 26.1758 33.3575 23.5893 33.8605C23.3567 33.9062 23.124 33.9535 22.8913 34C16.962 34 11.0318 34 5.10243 34Z" fill="white"/>
<path d="M14.686 0C15.0124 0.0688965 15.3446 0.118701 15.6652 0.20835C18.9423 1.11895 21.0585 3.23896 21.731 6.60161C22.6173 11.0334 19.9618 14.8692 16.184 16.0222C11.2552 17.5263 6.75637 14.3172 5.84379 9.84473C5.00437 5.7292 7.36394 1.67593 11.3308 0.365234C11.7633 0.222461 12.2237 0.167676 12.6709 0.0697266C12.7531 0.0514648 12.8329 0.0232422 12.9143 0C13.5046 0 14.0949 0 14.686 0Z" fill="white"/>
</svg>
